/* XPM */
static char *vitalcoin16[] = {
/* columns rows colors chars-per-pixel */
"16 16 175 2 ",
"   c None",
".  c #CE7F1F",
"X  c #CF801E",
"o  c #D1811E",
"O  c #D0801F",
"+  c #D3801E",
"@  c #EE901F",
"#  c #F6941F",
"$  c #D58320",
"%  c #D68420",
"&  c #D78520",
"*  c #D88520",
"=  c #D98620",
"-  c #DB8720",
";  c #DE8820",
":  c #DD8C2A",
">  c #DF8D2A",
",  c #DF8E2D",
"<  c #DD8E2F",
"1  c #DF8E2E",
"2  c #DF8F2F",
"3  c #DF8F30",
"4  c #DE9136",
"5  c #DD933B",
"6  c #DF943B",
"7  c #DF943C",
"8  c #DD943F",
"9  c #DF953E",
"0  c #E28B21",
"q  c #E28B22",
"w  c #E48C21",
"e  c #E48C22",
"r  c #E68D22",
"t  c #E68D23",
"y  c #E78E22",
"u  c #E78D24",
"i  c #E78E24",
"p  c #EB9022",
"a  c #EC9022",
"s  c #EC9123",
"d  c #ED9224",
"f  c #EF9224",
"g  c #E8932C",
"h  c #E9952E",
"j  c #F29423",
"k  c #F39523",
"l  c #F69520",
"z  c #F49523",
"x  c #F59623",
"c  c #F19324",
"v  c #F09425",
"b  c #F29425",
"n  c #F39625",
"m  c #F49624",
"M  c #F59625",
"N  c #F69625",
"B  c #F69725",
"V  c #F79727",
"C  c #F99620",
"Z  c #F89623",
"A  c #F89723",
"S  c #F89724",
"D  c #F79824",
"F  c #F79825",
"G  c #F59827",
"H  c #F69826",
"J  c #F79826",
"K  c #F89824",
"L  c #F99824",
"P  c #F99825",
"I  c #F99925",
"U  c #F89926",
"Y  c #F99926",
"T  c #FA9926",
"R  c #F09529",
"E  c #F7992A",
"W  c #F6992B",
"Q  c #F4992D",
"!  c #F89828",
"~  c #F89928",
"^  c #F99A28",
"/  c #F99B28",
"(  c #F99B29",
")  c #F89A2A",
"_  c #F99B2B",
"`  c #F89B2C",
"'  c #F99C2C",
"]  c #F89C2D",
"[  c #F99C2D",
"{  c #F89C2E",
"}  c #F89D2E",
"|  c #F99D2E",
" . c #E19439",
".. c #E8993B",
"X. c #EA9A3A",
"o. c #EF9D3A",
"O. c #F09A33",
"+. c #F39D34",
"@. c #F69F36",
"#. c #F69F37",
"$. c #F89D30",
"%. c #FA9D30",
"&. c #F99F30",
"*. c #F99F33",
"=. c #FA9F33",
"-. c #F89F34",
";. c #F89F35",
":. c #F19D38",
">. c #F19D3B",
",. c #F19E3B",
"<. c #F19F3E",
"1. c #F8A035",
"2. c #F7A13C",
"3. c #F4A13F",
"4. c #F8A239",
"5. c #F9A33A",
"6. c #F9A23B",
"7. c #E69B40",
"8. c #EB9F45",
"9. c #EA9F46",
"0. c #E7A04C",
"q. c #EAA049",
"w. c #F1A243",
"e. c #F2A245",
"r. c #F2A345",
"t. c #F2A547",
"y. c #F9A440",
"u. c #F9A846",
"i. c #F5AA50",
"p. c #F6AE59",
"a. c #F1AE5C",
"s. c #F1B166",
"d. c #F6B86E",
"f. c #E3B072",
"g. c #E6B476",
"h. c #EBB473",
"j. c #ECB573",
"k. c #E9B77D",
"l. c #EDB87B",
"z. c #E7BC89",
"x. c #EABE88",
"c. c #E3BD92",
"v. c #F0C28A",
"b. c #ECC393",
"n. c #E3C099",
"m. c #E4C39B",
"M. c #E7C69F",
"N. c #EBC79B",
"B. c #E8C79F",
"V. c #F3C793",
"C. c #EDCCA4",
"Z. c #EACEAD",
"A. c #E9CFAF",
"S. c #E6CEB1",
"D. c #E8CFB2",
"F. c #ECD2B4",
"G. c #F2D6B3",
"H. c #E8D7C2",
"J. c #E5D8C8",
"K. c #E7D9C9",
"L. c #E5DBCE",
"P. c #EADAC8",
"I. c #E9DCCC",
"U. c #ECDECD",
"Y. c #E7DFD6",
"T. c #E9DFD3",
"R. c #EDE2D5",
"E. c #E7E0D8",
"W. c #E2E0DC",
"Q. c #E6E1DC",
"!. c #ECE3D8",
"~. c #E6E4E1",
"^. c #E7E6E4",
"/. c #EBE8E4",
"(. c #EBEAE8",
/* pixels */
"o                         > 1 3 ",
"o o     +   q s d b u   : , 2   ",
"O o X p y n D C S A N ~ g <     ",
"  . - k / ;.t.w.o.G Z P | #.    ",
"    f U e.j.B.D.m.9.E _ | :. .  ",
"  & c ( i.S.T.(.L.8.2.6.*.1.    ",
"  r m ] s.J.C.V.^.x.3.y.' [ X.  ",
"  e B =.b.~.a.v.U.Q.l.>.Q T ,.  ",
"  w H 6.M.~.!.A.F.R.E.c.0.F <.  ",
"  ; x %.p.Z.I.P.d.G./.n.@ ` 3.  ",
"    v } 5.u.N.W.H.Y.K.f.v $.7.  ",
"  $ i ) | -.r.k.h.z.g.q.# 4.    ",
"    a z K L F l V W +.! &...8   ",
"    % 0 M J L I Y ^ { O.@.5 7 9 ",
"  * * &   t j f R h   4     6 7 ",
"* * =                         6 "
};
