/* XPM */
static char *vitalcoin64[] = {
/* columns rows colors chars-per-pixel */
"64 64 155 2 ",
"   c None",
".  c #AC751D",
"X  c #A97B1E",
"o  c #AC811F",
"O  c #B1821F",
"+  c #BD8822",
"@  c #BF9023",
"#  c #BA8C30",
"$  c #FC8702",
"%  c #FD8B05",
"&  c #FD8E0B",
"*  c #FD910F",
"=  c #F88F14",
"-  c #F79016",
";  c #FC9215",
":  c #F7921C",
">  c #FA951B",
",  c #FC991E",
"<  c #C28421",
"1  c #C58B22",
"2  c #CA8B22",
"3  c #D48D23",
"4  c #CE9123",
"5  c #CD932A",
"6  c #D3932A",
"7  c #D69B2B",
"8  c #CC9833",
"9  c #E59625",
"0  c #ED9B26",
"q  c #E39A2B",
"w  c #F79625",
"e  c #F89624",
"r  c #F79825",
"t  c #F89825",
"y  c #F89728",
"u  c #F79B2C",
"i  c #F89B2B",
"p  c #E09F30",
"a  c #EE9A36",
"s  c #F59D33",
"d  c #F99E32",
"f  c #F39F3A",
"g  c #D7A43D",
"h  c #E0A127",
"j  c #E4A728",
"k  c #EAA429",
"l  c #EAA929",
"z  c #FDA226",
"x  c #FEAB26",
"c  c #F5A429",
"v  c #FCA429",
"b  c #F3AB2A",
"n  c #FDAB2A",
"m  c #EFB52C",
"M  c #F2B42C",
"N  c #FEB42C",
"B  c #FEBB2D",
"V  c #E5A334",
"C  c #ECA533",
"Z  c #EFAF32",
"A  c #E3A439",
"S  c #F7A037",
"D  c #FAA135",
"F  c #FDAB30",
"G  c #F6A13B",
"H  c #F9A33B",
"J  c #FBB533",
"K  c #FFC02E",
"L  c #FEC133",
"P  c #EFA145",
"I  c #EEA54C",
"U  c #F4A444",
"Y  c #FAA642",
"T  c #FAA846",
"R  c #F3A74B",
"E  c #F6A84B",
"W  c #FAAA4A",
"Q  c #E0B041",
"!  c #ECAC5C",
"~  c #F2AA52",
"^  c #FBAE53",
"/  c #F2AE5C",
"(  c #FBB056",
")  c #F0B05D",
"_  c #FBB25B",
"`  c #EDAE61",
"'  c #F2AF60",
"]  c #EEB163",
"[  c #E5B16E",
"{  c #ECB36C",
"}  c #F1B264",
"|  c #FBB460",
" . c #F1B46B",
".. c #EBB673",
"X. c #EDB973",
"o. c #E5B77A",
"O. c #E7BA7A",
"+. c #ECBB7D",
"@. c #E7BF83",
"#. c #EABD83",
"$. c #E3BD8E",
"%. c #DFC39D",
"&. c #E9C085",
"*. c #ECC28C",
"=. c #EBC691",
"-. c #E7C69A",
";. c #E9C69B",
":. c #EBCA9C",
">. c #E6CCA4",
",. c #EACCA3",
"<. c #E4CEAD",
"1. c #EBCFAA",
"2. c #EDD0A4",
"3. c #E4D1AB",
"4. c #EBD1AD",
"5. c #E5D4B4",
"6. c #EAD4B2",
"7. c #EAD6BB",
"8. c #EBDCBF",
"9. c #DFD6C6",
"0. c #EBDDC4",
"q. c #E3DECD",
"w. c #E9DDCA",
"e. c #F0DFC5",
"r. c #E7DFD3",
"t. c #EDE0C6",
"y. c #EBE2CC",
"u. c #F1E3CB",
"i. c #ECE4D3",
"p. c #EEE8D6",
"a. c #EAE6DA",
"s. c #E5EADC",
"d. c #EDEADD",
"f. c #F1E7D3",
"g. c #F2EADC",
"h. c #EAEAE3",
"j. c #E4EFEC",
"k. c #EAEEEC",
"l. c #F0ECE2",
"z. c #E4F2EB",
"x. c #ECF1EB",
"c. c #F5F0E5",
"v. c #F3F3EB",
"b. c #E5F7F1",
"n. c #ECF1F5",
"m. c #ECF4F9",
"M. c #E6FFFF",
"N. c #EDFBFD",
"B. c #F3F5F2",
"V. c #F8F7F2",
"C. c #F3F9F6",
"Z. c #F9F9F5",
"A. c #F0F6FA",
"S. c #F5FEFE",
"D. c #FDFFFF",
/* pixels */
"                                                                                                                                ",
"                                                                                                                                ",
"                                                                                                                                ",
"                                                            O O                                                                 ",
"                                                  K B j l m b b N x x N B N X 2                                                 ",
"                                              m b n t t t t e t w y y t i v n n B 0                                             ",
"                                      b 1 N x v t e y y t t t t y y y y w e e e v v n N 3                                       ",
"                                  2 l B z t - y t t t t t t t t , y y t t e i e e e e n c 0                                     ",
"                                B c z t t t t y y y y y y t t t y y y , y , y 0 y y y , c t z n                                 ",
"                            < 4 B t t e t t t y , 0 , , t y e t y , y 0 y y y , y , y y , y e z B                               ",
"                          v 0 n t t i t t t t t y y y y y , t t y y y , y , t y y y , 0 0 y , y n N                             ",
"                          n t t w t i i i i i y y , y , y y t t y , y y y , y t , , y y , y y y e v B                           ",
"                        N t t t t i i u i i c y y u y y i t e e , 0 , y y , t y y y y y y , y , t e t n                         ",
"                      N t t t t w i i u i i u u c y c y i i i i y y y y y y t t , y , y y 0 y 0 t t e t v v                     ",
"                    N v e t t t t i i u d d u u ; y S & > i i i c , y * , u y t 0 y y y , y , , t t t t t c 6                   ",
"                  B n e t t t t t i i i d D u y u =.>.I > i d > > ; [ a ; k u i y c , y y y y y t t t t t v q                   ",
"                B n w w y y y y y c u u D D D S <.V.M.2.w u e ; f 6.z.@.$ i i i i i i i i i t t t e t t y t N N                 ",
"                x , w w , y 0 , y y u y t D v t >.S.D.m.+.$ & { 8.N.D.w.D , i i i i i i i i i i i i i i t t e z q               ",
"              9 y y y y y y y y y i > , s $.R & d 0.S.D.0.! *.d.S.D.S.z.] i D D d D i i i i i i i i i i u i - x b               ",
"            X k c , y , y , , y y c > ! i.m.7.s > / u.D.D.c.S.D.D.S.d.>.f d D D d D d d d d D i i i i i u u u y B J             ",
"            B N w y , y y t t t i i s ..M.D.v.+.- & *.V.D.D.D.D.D.V.{ = i S S H D S S S D D D D d d d i i i y , i 5             ",
"            n e y , 0 y t y t t i u > f 6.Z.D.x.R f ,.S.D.D.D.D.D.V...= H S H H S S H S H S D D D d u i i w y y t N             ",
"          4 v w , y , y y t t t i i d & ~ h.S.Z.f.u.N.D.D.D.D.D.D.D.8.f D T T S T S T S H S T S D d i i i t t t e t             ",
"          B v w c y y y , y t u i i d d > ] C.D.D.D.D.D.V.D.D.D.D.D.m.1.i D T T T H T T T H S S d i u i t t y t y z B           ",
"        1 z y y y y , y t y t t i i d i $ ~ t.D.D.D.S.x.,.2.S.D.D.D.D.h.@.s D W T T T T T U S S D i u i y c , y y y n           ",
"        X N , y , y , y y t t y i i d ; / 1.S.D.D.D.k.+.H D 8.S.D.D.D.D.i./ S W T T T T T U S D d u u u y y y y y - c J         ",
"        b z w t , y 0 y t t t i i i ; R 0.S.D.D.Z.i.] R S T X.i.S.D.D.D.N.w.T S ^ T T T f S S D d d u u y , y , y y z L         ",
"        B z y y y y , y t t t u d > S 0.C.D.D.D.w.) S W _ ^ S ;.m.D.D.D.D.v.;.T T T T T T f S D d i c 0 , y y 0 y y , m         ",
"        l t y t y y y y , y i u > > ,.v.D.D.D.h. .i ^ ( _ _ ( R 4.S.D.D.D.D.d...T T T T T S S d d i i i y y , , y y t b         ",
"        N t y y 0 , 0 , , y i u > P p.S.D.D.S.4.t ^ ^ ^ | _ | S ) f.D.D.D.D.S.d.R d T T S S D d u i i t , y y y , y t n         ",
"        N w w w y y y y 0 y c u ; ..N.D.D.D.S.@.i W ^ _ _ ^ ^ T *.v.D.D.D.D.D.S.6.f v T S T S d d i i i 0 y y , y y e c g       ",
"        N w w w y , , y y y y v ; =.S.D.D.D.D.;.> T _ _ W T  .w.v.S.D.D.D.D.D.D.v.@.d S S t s e > i u e , y y y y , w n Q       ",
"      1 b w , y t t t e t i i i * ;.N.D.D.D.D.i.] y D S ~ ;.d.S.D.S.u.t.S.D.D.D.S.h.~ > t > o.[ ; , u y , y , y , y w N         ",
"      o l w 0 y t t t t i i i s ; { N.D.D.D.D.S.t.4.*.5.s.V.D.D.N.6.} ~ t.D.D.D.D.S.w.Y R 6.z.h.S , y y c y 0 y , y w z         ",
"        M t , y t t t t t i u i ; S h.D.D.D.D.D.D.S.D.D.D.D.D.n.1.} T D *.m.D.D.D.D.V.V.v.D.D.S.>.c y y , y , y y , 0 z         ",
"        l t y y y e t t t i i i D t *.C.D.D.D.D.D.D.D.D.D.D.m.1.R ( ( ( W ;.S.D.D.D.D.D.D.D.S.t...= y y y y y y y y - J         ",
"        h y w , t y t y t i i d D ; U t.C.D.D.D.D.D.D.D.D.D.i.~ W _ _ _ S ~ 8.D.D.D.D.D.D.m.2.I $ y y t y t , 0 t e t v         ",
"        B v y y y t , t i i i d D S , ~ i.n.D.S.S.S.D.D.D.S.<.S W _ _ | W , ..C.D.D.D.D.t.=.u ; - c t t t y y y t e z L         ",
"        K n , y y y y y i i i d S H D s Y ;.3.y.;.=.V.D.D.S.4.- ( _ ^ W T { 0.S.D.D.D.f.[ % t t u i t t , y , , t e z #         ",
"          b y y , y , y i u d d S S S S D u s S ; ) S.D.D.D.d.! > D i Y ;.p.S.D.D.D.D.S.` - s u u i t t y y y y e e v 8         ",
"          N z y y , y y c u u D S H H T T T T T D *.S.D.D.D.S.7.*.{ ,.t.A.D.D.S.l.g.Z.D.k.R $ u c 0 y , t y t y t t x           ",
"            z y y , y , y u i D S H H H H H H T i ..m.D.D.D.D.D.S.S.S.D.D.D.D.0.` Y h.S.D.6.s * u , y y y t y t e z V           ",
"            B y y y y t u i d D H H S H H H S H t T b.S.D.D.D.D.D.D.D.D.D.D.D.;.; $ +.v.D.N.o.u y y y y t y t e e c             ",
"            1 z t y t y u c d d D D D D D S H H D i @.V.D.D.D.D.D.D.D.S.V.S.D.i.! ; d 6.N.h.[ , , y , y y , t t z n             ",
"            n B y y y c i i d i d d d d D d d D D > S 1.x.S.D.D.D.N.d.;.` 0.S.S.t.S & U ;.S ; * y y y c t t t e v A             ",
"              k x y y y i i i i i i d i v d d d d D > i +.6.h.s.3.&.Y - & @.V.D.N.<.t t s y t i y y y , t t t t F               ",
"              3 z y y i i i i i i i i i i i i d s i d > > - i > > ; t v i e 2.N.S.9.P v S i i i , y , y t e e v                 ",
"                B B t e e i t e i i i i i i i i i i i s u v t i d D D D d t ~ 5.<.P y u s i i i 0 y , y t e v n                 ",
"                  4 N t t y t y t t e t u i y y c i i i c u u u u i i D D t ; P s ; d d u u z y y y y , e n N                   ",
"                  < y t t t t t t t t t t e y , y u i t y u u i i i i i i i i i u d d d c u u t y , y w v N                     ",
"                    v n t > y , t t t t t y t y y t t t 0 y y y i i i i i i u u i i u d u u t y , y w c N                       ",
"                        N c y y t e t t t t y t t y t t , y , c t i t i i i y c i i i u i i t t y w y x                         ",
"                          N v t t t t t y y t y y , y , y y y y t t t t y y , y i i i i c u i y y , n                           ",
"                            N n e e t t y , y t y y y 0 y , , y t t t t , y 0 y w y t i y y y t z n i                           ",
"                              N n t - y , y y t , y , , y y y y t y y t , y y t y t e t y y y z q C                             ",
"                                N n c c , y y t y y y y , 0 , y y t t y y y , y t y y e y z c n                                 ",
"                                    9 k n t w w t y y t y t t t , y , y y y y , t t t t x c V                                   ",
"                                      . B N z n t y - w , y y y , y y y , y 0 y t t N 6 b                                       ",
"                                            3 B n n z z y y w w w e e w e z t x n                                               ",
"                                                2 X B B x N v B b b N c b B n                                                   ",
"                                                                7 6                                                             ",
"                                                                                                                                ",
"                                                                                                                                ",
"                                                                                                                                "
};
